# xmcd
#
# Track frame offsets:
#	150
#	17428
#	35618
#	45710
#	56590
#	67694
#	80981
#	93902
#	105601
#	120024
#	132522
#	149749
#	159281
#	165903
#	175241
#	188057
#	202618
#
# Disc length: 2771 seconds
#
# Revision: 1
# Processed by: cddbd v1.4PL0 Copyright (c) Steve Scherf et al.
# Submitted via: audiograbber 1.80
#
DISCID=d30ad111
DTITLE=Seatsniffers - Some of This
DYEAR=1900
DGENRE=
TTITLE0=Get It
TTITLE1=UFO
TTITLE2=I'm Ready
TTITLE3=Yes I Do
TTITLE4=Kathy Ann
TTITLE5=Assembly Line
TTITLE6=Shake It
TTITLE7=Since My Baby Left me
TTITLE8=A Cheat
TTITLE9=Help Me
TTITLE10=Be There Alone
TTITLE11=Arabian Lovecall
TTITLE12=My Baby Wears Black
TTITLE13=I Ain't Gonna Mind
TTITLE14=Think of Me
TTITLE15=3 Times Lucky
TTITLE16=Whistle Bait
EXTD=
EXTT0=
EXTT1=
EXTT2=
EXTT3=
EXTT4=
EXTT5=
EXTT6=
EXTT7=
EXTT8=
EXTT9=
EXTT10=
EXTT11=
EXTT12=
EXTT13=
EXTT14=
EXTT15=
EXTT16=
PLAYORDER=
